DataType=double
version=3
OpenSimVersion=4.5.2-2025-05-03-6a4c6ec41
endheader
time	q	/jointset/head_joint/q/speed
0.5000000000000003	0.783505488733673	0.1330906658193772
0.5010000000000003	0.7836396524643954	0.1352365680520297
0.5020000000000003	0.7837759661063439	0.1373904846561616
0.5030000000000003	0.7839144368555402	0.1395507789210313
0.5040000000000003	0.7840550703532836	0.1417159781160695
0.5050000000000003	0.7841978708419372	0.1438847571014934
0.5060000000000003	0.7843428413051434	0.1460559235778388
0.5070000000000003	0.7844899835940267	0.1482284048105181
0.5080000000000003	0.7846392985407843	0.1504012356819023
0.5090000000000003	0.7847907860609273	0.1525735479381735
0.5100000000000003	0.784944445245305	0.1547445605114713
0.5110000000000003	0.7851002744429362	0.1569135708098033
0.5120000000000003	0.7852582713355654	0.1590799468779436
0.5130000000000003	0.7854184330047722	0.1612431203422192
0.5140000000000003	0.7855807559923782	0.1634025800607966
0.5150000000000003	0.785745236354821	0.1655578664089183
0.5160000000000003	0.7859118697120999	0.1677085661355928
0.5170000000000003	0.7860806512918356	0.1698543077345941
0.5180000000000003	0.7862515759689312	0.1719947572783389
0.5190000000000003	0.7864246383012768	0.1741296146683536
0.5200000000000004	0.7865998325618909	0.1762586102606717
0.5210000000000004	0.7867771527678564	0.1783815018286692
0.5220000000000004	0.7869565927063714	0.1804980718295933
0.5230000000000004	0.787138145958203	0.1826081249444151
0.5240000000000004	0.7872995490590937	0.1401978040557978
0.5250000000000004	0.7874241403334481	0.1089845341161909
0.5260000000000004	0.7875161886987642	0.07511204098771385
0.5270000000000004	0.7875747579039611	0.04202627045306503
0.5280000000000004	0.7876002062072254	0.008870293082000047
0.5290000000000004	0.7875936226095936	-0.02203747722288866
0.5300000000000004	0.787557686581312	-0.04983451862800563
0.5310000000000004	0.7874952180041862	-0.07510253008026402
0.5320000000000004	0.7874086530032942	-0.09802732543766443
0.5330000000000004	0.7873002091889196	-0.1188601200595772
0.5340000000000004	0.7871718759609839	-0.1378061189243081
0.5350000000000004	0.7870254451787092	-0.1550551981181734
0.5360000000000004	0.7868807205388304	-0.1343938369805714
0.5370000000000004	0.7867519193342168	-0.1232083544764401
0.5380000000000004	0.7866354579042062	-0.1097143086141078
0.5390000000000004	0.7865321794721024	-0.09684238093528438
0.5400000000000004	0.7864418263244857	-0.08386376148353732
0.5410000000000004	0.7863644145205249	-0.07095971550017342
0.5420000000000004	0.7862998920172358	-0.05808518193373065
0.5430000000000004	0.7862482236905098	-0.04525138411270325
0.5440000000000004	0.7862093701918169	-0.03245554754312008
0.5450000000000004	0.7861832932068259	-0.01969837832206955
0.5460000000000004	0.7861699541481604	-0.006979716441633355
0.5470000000000004	0.7861693144810185	0.005700383239965608
0.5480000000000004	0.7861811403849276	0.01795140457084382
0.5490000000000004	0.786204635811837	0.02903940949841275
0.5500000000000004	0.7862387919992846	0.03927290761291517
0.5510000000000004	0.7862827727726287	0.0486885646736465
0.5520000000000004	0.7863358067560453	0.05737931244714452
0.5530000000000004	0.7863972034068126	0.06541388523459382
0.5540000000000004	0.7864663393332708	0.07285785074551854
0.5550000000000004	0.7865426529723691	0.07976929838377059
0.5560000000000004	0.7866256380607883	0.08620073811529626
0.5570000000000004	0.7867148381913506	0.0921993721724204
0.5580000000000004	0.7868098418062659	0.09780769702255135
0.5590000000000004	0.7869102777178041	0.1030639562496815
0.5600000000000004	0.7870158110702576	0.1080025702536501
0.5610000000000004	0.7871261397073703	0.11265451748186
0.5620000000000004	0.7872174068740865	0.0698796616960394
0.5630000000000004	0.7872718591160754	0.03902473025650197
0.5640000000000004	0.7872940369389227	0.005330877958524854
0.5650000000000004	0.7872829366221262	-0.02753149279267911
0.5660000000000004	0.7872389332714353	-0.06047513422370197
0.5670000000000004	0.7871620591297304	-0.09327301926174254
0.5680000000000004	0.7870524317410261	-0.1259815728489192
0.5690000000000004	0.7869101474694554	-0.1585867297657686
0.5700000000000004	0.7867498514952989	-0.162004947531407
0.5710000000000004	0.7865829407943288	-0.171816172162809
0.5720000000000004	0.7864074031792055	-0.179258761198785
0.5730000000000004	0.7862244788095356	-0.186589668707519
0.5740000000000004	0.7860345248957891	-0.1933178374008923
0.5750000000000004	0.7858380515184628	-0.1996285847724075
0.5760000000000004	0.7856354707055713	-0.2055326981274496
0.5770000000000004	0.7854271648413316	-0.2110786777061719
0.5780000000000004	0.7852134750599508	-0.216300523218913
0.5790000000000004	0.7849947089976118	-0.2212312309467219
0.5800000000000004	0.7847711432437151	-0.225899898121769
0.5810000000000004	0.7845430266724424	-0.2303328579025524
0.5820000000000004	0.7843105831612707	-0.2345537704974532
0.5830000000000004	0.784074014107235	-0.2385839365448765
0.5840000000000004	0.7838335006742481	-0.2424425216164331
0.5850000000000004	0.783589205819988	-0.2461467725790995
0.5860000000000004	0.783341276119021	-0.2497122087625797
0.5870000000000004	0.7830898434038719	-0.253152794894894
0.5880000000000004	0.7828350262419159	-0.256481096524308
0.5890000000000004	0.7825769312645929	-0.2597084199537862
0.5900000000000004	0.7823156543636897	-0.262844938168371
0.5910000000000004	0.7820512817679895	-0.2658998041731937
0.5920000000000004	0.781783891012252	-0.2688812529968252
0.5930000000000004	0.7815135518092877	-0.2717966934944862
0.5940000000000004	0.7812403268348216	-0.2746527909708676
0.5950000000000004	0.7809642724338636	-0.2774555415406688
0.5960000000000004	0.7806854392564367	-0.2802103390530625
0.5970000000000004	0.7804038728297275	-0.2829220353237019
0.5980000000000004	0.7801196140730149	-0.2855949943435127
0.5990000000000004	0.7798143397848792	-0.324953062253623
0.6000000000000004	0.7794743317853269	-0.3550623578644787
0.6010000000000004	0.7791031272352646	-0.3873461099277988
0.6020000000000004	0.7786999721070976	-0.4189634593849062
0.6030000000000004	0.7782651795710748	-0.4506208714193481
0.6040000000000004	0.7777987974220573	-0.4821426311663715
0.6050000000000004	0.777300939475123	-0.5135724131652964
0.6060000000000004	0.7767722832327706	-0.543739168993352
0.6070000000000004	0.7762148033905135	-0.5712195632574895
0.6080000000000004	0.775630859700106	-0.5966668195306368
0.6090000000000004	0.7750464500489603	-0.5721514833651721
0.6100000000000004	0.7744803192526003	-0.5601091406722557
0.6110000000000004	0.7739277578204	-0.5450127777459662
0.6120000000000004	0.7733898890557283	-0.5307238302783447
0.6130000000000004	0.7728663856733057	-0.5162820373893945
0.6140000000000004	0.7723572810974767	-0.501926241328394
0.6150000000000004	0.771862519012365	-0.4875970801322828
0.6160000000000004	0.7713813140129135	-0.4748120928729904
0.6170000000000004	0.7709121209790207	-0.4635731692589509
0.6180000000000004	0.770453490596702	-0.4536868075070306
0.6190000000000004	0.7700041331079598	-0.4450273976954447
0.6200000000000004	0.7695628841217539	-0.4374698160424562
0.6210000000000004	0.7691286966148275	-0.430904450961063
0.6220000000000004	0.7686773137095171	-0.4718605828998567
0.6230000000000004	0.7681909463786226	-0.5008732415466164
0.6240000000000004	0.7676741439673181	-0.5327306908909151
0.6250000000000004	0.7671259005370684	-0.5637552247956714
0.6260000000000004	0.7665465917134222	-0.5948614236046368
0.6270000000000004	0.7659362842083336	-0.6257525336270342
0.6280000000000004	0.765296595697379	-0.6536233839828698
0.6290000000000004	0.7646300443909231	-0.6794780775340098
0.6300000000000004	0.7639631018881354	-0.6544057752334828
0.6310000000000004	0.7633148751694988	-0.6420465408761845
0.6320000000000005	0.7626805644376593	-0.6265738250346512
0.6330000000000005	0.7620613152092121	-0.6119235595157979
0.6340000000000005	0.7614567944247606	-0.5971169619366336
0.6350000000000005	0.7608670366897965	-0.5823974855390004
0.6360000000000005	0.7602919506941922	-0.5677735081001845
0.6370000000000005	0.7597304427544176	-0.555241396906109
0.6380000000000005	0.7591807750750197	-0.5440930073928938
0.6390000000000005	0.7586415711320076	-0.5343139418209436
0.6400000000000005	0.7581115455389741	-0.5257363229154957
0.6410000000000005	0.7575895531310787	-0.5182475850564293
0.6420000000000005	0.7570745604725675	-0.5117368358812709
0.6430000000000005	0.7565425834004251	-0.5522163823079779
0.6440000000000005	0.7559760322923338	-0.580884847079421
0.6450000000000005	0.7553794066168903	-0.6123654640597895
0.6460000000000005	0.7547517125543539	-0.6430215664910031
0.6470000000000005	0.7540933224333392	-0.6737575267967941
0.6480000000000005	0.7534042688629039	-0.704348411070258
0.6490000000000005	0.7527131633580743	-0.677861391221837
0.6500000000000005	0.7520414233650254	-0.6656174205909277
0.6510000000000005	0.7513836741797552	-0.6498797994073523
0.6520000000000005	0.7507412039696391	-0.6350594963259431
0.6530000000000005	0.7501136438740889	-0.6200595957214409
0.6540000000000005	0.7495004603583799	-0.6063063612003458
0.6550000000000005	0.7489001669386298	-0.5942794257972385
0.6560000000000005	0.7483111988581582	-0.5836557019292251
0.6570000000000005	0.747732204445052	-0.574332108012348
0.6580000000000005	0.7471619532954835	-0.5661691896663826
0.6590000000000005	0.7465993416842235	-0.559053044293315
0.6600000000000005	0.7460201317161028	-0.5993658736850815
0.6610000000000005	0.7454065688401402	-0.6277587989895804
0.6620000000000005	0.744763193269647	-0.6589912096493501
0.6630000000000005	0.7440890007829859	-0.6893925763665126
0.6640000000000005	0.7433843660286206	-0.7198756906585586
0.6650000000000005	0.7426493207738599	-0.7502135227105204
0.6660000000000005	0.7419124764801666	-0.7234737644735587
0.6670000000000005	0.7411952503433308	-0.7109772427689072
0.6680000000000005	0.7404922674543508	-0.6949872931047898
0.6690000000000005	0.7398048157604973	-0.6799148791857118
0.6700000000000005	0.7391325261810062	-0.6646630904485676
0.6710000000000005	0.7384748184339006	-0.6507512395060933
0.6720000000000005	0.7378301602286594	-0.6385640291430121
0.6730000000000005	0.7371969777709964	-0.6277997640242858
0.6740000000000005	0.7365739033123544	-0.6183480483848902
0.6750000000000005	0.7359596940171901	-0.6100694521779269
0.6760000000000005	0.7353294906785439	-0.6503361063408907
0.6770000000000005	0.7346651192779184	-0.678405514788635
0.6780000000000005	0.7339712240826348	-0.7093836424576175
0.6790000000000005	0.7332467747329128	-0.7395137685349092
0.6800000000000005	0.7324921521184189	-0.7697301174431042
0.6810000000000005	0.7317074712744549	-0.7996301730132238
0.6820000000000005	0.7308943326866502	-0.8266455534036263
0.6830000000000005	0.7300808675455804	-0.800283277903626
0.6840000000000005	0.7292871030283862	-0.7872443397705615
0.6850000000000005	0.7285080096718534	-0.7709409817883246
0.6860000000000005	0.7277447892729497	-0.7554984519239395
0.6870000000000005	0.7269970939288517	-0.7398908990252304
0.6880000000000005	0.7262649610772266	-0.7243734939493865
0.6890000000000005	0.7255474100093047	-0.7107273568883872
0.6900000000000005	0.7248427227340325	-0.6986459308903251
0.6910000000000005	0.724123713776492	-0.7393706949487316
0.6920000000000005	0.7233706083711411	-0.7668387644942047
0.6930000000000005	0.722588448673584	-0.7974792262788518
0.6940000000000005	0.7217761051743811	-0.8272063125661721
0.6950000000000005	0.7209339832224276	-0.8570360771740755
0.6960000000000005	0.7200632769875283	-0.8843748258838735
0.6970000000000005	0.7191923048353864	-0.8575679099828478
0.6980000000000005	0.7183413823361456	-0.8442755550309554
0.6990000000000005	0.717505408076094	-0.8276714574319277
0.7000000000000005	0.7166856015109494	-0.8119401933059256
0.7010000000000005	0.7158816101075206	-0.7960411615161902
0.7020000000000005	0.7150934123953071	-0.7803528384132749
0.7030000000000005	0.7143198124715777	-0.7668456099816842
0.7040000000000005	0.7135589860993825	-0.7548057575304542
0.7050000000000005	0.7127840051212233	-0.7951547953613125
0.7060000000000005	0.7119752514053183	-0.8223511708596857
